<?xml version="1.0" encoding="UTF-8"?>
<svg width="48px" height="48px" viewBox="0 0 48 48" version="1.1" xmlns="http://www.w3.org/2000/svg" xmlns:xlink="http://www.w3.org/1999/xlink">
    <!-- Generator: Sketch 56.3 (81716) - https://sketch.com -->
    <title>Icons_Footer_Instagram</title>
    <desc>Created with Sketch.</desc>
    <g id="Icons_Footer_Instagram" stroke="none" stroke-width="1" fill="none" fill-rule="evenodd">
        <rect id="Bound" x="0" y="0" width="48" height="48"></rect>
        <path d="M36.1902222,40 L11.8097778,40 C9.70577778,40 8,38.2942222 8,36.1902222 L8,11.8097778 C8,9.70577778 9.70577778,8 11.8097778,8 L36.1902222,8 C38.2942222,8 40,9.70577778 40,11.8097778 L40,36.1902222 C40,38.2942222 38.2942222,40 36.1902222,40 L36.1902222,40 Z M24,17.7928889 C20.576,17.7928889 17.8008889,20.568 17.8008889,23.992 C17.8008889,27.416 20.576,30.1911111 24,30.1911111 C27.424,30.1911111 30.1991111,27.416 30.1991111,23.992 C30.1991111,20.568 27.424,17.7928889 24,17.7928889 L24,17.7928889 Z M36.4195556,13.1671111 C36.4195556,12.3253333 35.6746667,11.5804444 34.8328889,11.5804444 L31.8408889,11.5804444 C31,11.5804444 30.224,12.3253333 30.224,13.1671111 L30.224,16.1591111 C30.224,17 31,17.776 31.8408889,17.776 L34.8328889,17.776 C35.6746667,17.776 36.4195556,17 36.4195556,16.1591111 L36.4195556,13.1671111 L36.4195556,13.1671111 Z M36.4195556,21.7208889 L33.6168889,21.7208889 C33.7982222,22.4711111 33.9048889,23.1866667 33.9048889,23.992 C33.9048889,29.4622222 29.4702222,33.8968889 24,33.8968889 C18.5297778,33.8968889 14.0951111,29.4622222 14.0951111,23.992 C14.0951111,23.1866667 14.2017778,22.4711111 14.3831111,21.7208889 L11.5804444,21.7208889 L11.5804444,34.8328889 C11.5804444,35.6746667 12.3253333,36.4195556 13.1662222,36.4195556 L34.8328889,36.4195556 C35.6746667,36.4195556 36.4195556,35.6746667 36.4195556,34.8328889 L36.4195556,21.7208889 L36.4195556,21.7208889 Z" id="Shape" fill="#FFFFFF" fill-rule="nonzero"></path>
    </g>
</svg>