<?xml version="1.0"?>
<svg version="1.1" xmlns="http://www.w3.org/2000/svg" width="800" height="200" style=""><path fill="#ff0458" d="M34.2,97.408l36.192,0l0-7.296l-36.192,0q-7.104,0-11.904,5.568q-4.896,5.664-4.896,13.728q0,7.296,4.896,12.672q4.8,5.472,11.904,5.472l9.6,0l9.792,0q4.32,0,7.68,3.648q3.168,3.84,3.168,8.352q0,5.376-3.12,8.736t-7.728,3.36l-36.192,0l0,5.952l36.192,0q7.2,0,12-4.992t4.8-13.056q0-7.296-4.8-12.672q-4.896-5.376-12-5.376l-9.792,0l-9.6,0q-4.416,0-7.584-3.84q-3.264-3.552-3.264-8.256q0-5.376,3.12-8.688t7.728-3.312z M184.04064,90.4l-6.048,0l0,40.8q0,8.064-6.144,14.208t-14.208,6.144t-14.208-6.144t-6.144-14.208l0-40.8l-6.048,0l0,40.8q0,8.064-6.144,14.208q-6.336,6.144-14.304,6.144q-8.064,0-14.208-6.144t-6.144-14.208l0-40.8l-6.048,0l0,40.8q0,10.656,7.872,18.528t18.528,7.872q7.296,0,13.728-4.032q6.336-3.936,9.12-10.272q3.456,6.144,10.176,10.272q6.528,4.032,13.824,4.032q10.752,0,18.624-7.872q7.776-7.776,7.776-18.528l0-40.8z M224.05728,90.016q-10.752,0-18.048,7.776q-7.2,7.68-7.2,18.72l0,41.088l6.048,0l0-30.144l38.592,0l0,30.144l6.048,0l0-41.088q0-11.04-7.2-18.72q-7.488-7.776-18.24-7.776z M243.44928,121.504l-38.592,0l0-4.992q0-8.256,5.568-14.304q5.664-6.144,13.632-6.144t13.824,6.144q5.568,6.048,5.568,14.304l0,4.992z M264.07392,157.6l5.952,0l0-40.704q0-8.064,6.144-14.4q6.144-6.144,14.208-6.144t14.4,6.144q6.144,6.336,6.144,14.4l0,40.704l5.952,0l0-40.704q0-10.944-7.776-18.72t-18.72-7.776q-10.752,0-18.528,7.776t-7.776,18.72l0,40.704z M379.2432,97.408l36.192,0l0-7.296l-36.192,0q-7.104,0-11.904,5.568q-4.896,5.664-4.896,13.728q0,7.296,4.896,12.672q4.8,5.472,11.904,5.472l9.6,0l9.792,0q4.32,0,7.68,3.648q3.168,3.84,3.168,8.352q0,5.376-3.12,8.736t-7.728,3.36l-36.192,0l0,5.952l36.192,0q7.2,0,12-4.992t4.8-13.056q0-7.296-4.8-12.672q-4.896-5.376-12-5.376l-9.792,0l-9.6,0q-4.416,0-7.584-3.84q-3.264-3.552-3.264-8.256q0-5.376,3.12-8.688t7.728-3.312z M478.49184,90.4l-52.032,0l0,5.856l23.616,0l0,61.536l5.952,0l0-61.536l22.464,0l0-5.856z M519.66048,123.904l7.2,0q7.296,0,12.096-4.8t4.8-12.096q0-6.432-4.8-11.52q-5.088-5.28-12.096-5.28l-30.048,0l-5.952,0l0,67.392l5.952,0l0-33.696l15.648,0l20.448,33.696l7.2,0z M496.81248,117.952l0-21.696l30.048,0q4.416,0,7.776,3.168q3.168,3.168,3.168,7.584q0,4.608-3.168,7.776q-3.36,3.168-7.776,3.168l-30.048,0z M563.42112,139.168q0-4.608,3.264-8.352q3.264-3.936,7.872-3.936l1.248,0l17.952,0l0-5.952l-17.952,0l-1.248,0q-4.896-0.96-8.016-4.224t-3.12-7.776q0-5.664,3.312-8.976t9.072-3.312l32.64,0l0-6.048l-32.64,0q-7.392,0-12.864,5.472q-5.472,5.28-5.472,12.864q0,4.8,1.824,8.736t5.376,5.664q-3.552,2.592-5.376,6.816t-1.824,9.024q0,7.488,5.472,12.768q5.568,5.568,12.864,5.568l32.64,0l0-6.336l-32.64,0q-5.76,0-9.072-3.264t-3.312-8.736z M645.77376,90.016q-10.752,0-18.048,7.776q-7.2,7.68-7.2,18.72l0,41.088l6.048,0l0-30.144l38.592,0l0,30.144l6.048,0l0-41.088q0-11.04-7.2-18.72q-7.488-7.776-18.24-7.776z M665.16576,121.504l-38.592,0l0-4.992q0-8.256,5.568-14.304q5.664-6.144,13.632-6.144t13.824,6.144q5.568,6.048,5.568,14.304l0,4.992z M685.9824,157.408l5.952,0l0-40.608q0-8.064,6.144-14.208t14.208-6.144q7.872,0,14.208,6.144q6.048,6.048,6.048,14.208l0,40.608l6.144,0l0-40.608q0-8.256,6.144-14.208q6.144-6.144,14.112-6.144q8.064,0,14.208,6.144t6.144,14.208l0,40.608l5.952,0l0-40.608q0-10.944-7.68-18.624t-18.624-7.68q-7.2,0-13.536,3.936q-6.432,4.032-9.216,10.272q-3.744-6.432-10.08-10.272q-6.624-3.936-13.824-3.936q-10.848,0-18.528,7.68q-7.776,7.776-7.776,18.624l0,40.608z"/><path fill="#" d=""/></svg>
