<?xml version="1.0" encoding="UTF-8"?>
<svg width="48px" height="48px" viewBox="0 0 48 48" version="1.1" xmlns="http://www.w3.org/2000/svg" xmlns:xlink="http://www.w3.org/1999/xlink">
    <!-- Generator: Sketch 56.3 (81716) - https://sketch.com -->
    <title>Icons_Footer_Twitter</title>
    <desc>Created with Sketch.</desc>
    <g id="Icons_Footer_Twitter" stroke="none" stroke-width="1" fill="none" fill-rule="evenodd">
        <rect id="Bound" x="0" y="0" width="48" height="48"></rect>
        <path d="M42.439,12.553 C41.115,13.155 39.691,13.563 38.197,13.745 C39.722,12.808 40.893,11.324 41.444,9.556 C40.017,10.424 38.437,11.054 36.754,11.394 C35.407,9.922 33.488,9.002 31.363,9.002 C27.284,9.002 23.977,12.393 23.977,16.575 C23.977,17.168 24.043,17.746 24.169,18.3 C18.03,17.984 12.588,14.97 8.945,10.388 C8.31,11.507 7.945,12.807 7.945,14.195 C7.945,16.822 9.249,19.14 11.231,20.498 C10.02,20.459 8.881,20.118 7.886,19.551 C7.885,19.583 7.885,19.614 7.885,19.646 C7.885,23.315 10.431,26.375 13.81,27.071 C13.19,27.244 12.537,27.337 11.864,27.337 C11.388,27.337 10.925,27.289 10.474,27.201 C11.414,30.209 14.142,32.399 17.374,32.46 C14.846,34.491 11.661,35.701 8.201,35.701 C7.605,35.701 7.017,35.665 6.439,35.595 C9.708,37.744 13.59,38.998 17.761,38.998 C31.346,38.998 38.775,27.459 38.775,17.453 C38.775,17.124 38.768,16.798 38.754,16.473 C40.197,15.405 41.449,14.072 42.439,12.553 L42.439,12.553 Z" id="Path" fill="#FFFFFF" fill-rule="nonzero"></path>
    </g>
</svg>