<svg width="80" height="80" viewBox="0 0 80 80" fill="none" xmlns="http://www.w3.org/2000/svg">
  <g opacity="0.12">
    <path fill-rule="evenodd" clip-rule="evenodd" d="M68.3198 68.3198C52.7437 83.8938 27.2566 83.8938 11.6805 68.3154C-3.89348 52.7437 -3.89348 27.2566 11.6805 11.6805C27.2566 -3.89348 52.7437 -3.89348 68.3176 11.6805C83.8938 27.2566 83.8938 52.7437 68.3198 68.3198ZM63.5902 16.4077C50.6161 3.43346 29.3866 3.43346 16.41 16.41C3.43345 29.3842 3.43345 50.6161 16.4076 63.5903C29.3842 76.5668 50.6161 76.5668 63.5926 63.5903C76.5668 50.6137 76.5668 29.3842 63.5902 16.4077ZM50.1312 34.3946C48.6406 32.968 46.1069 32.968 44.6163 34.3946L40.0011 38.8117L35.3855 34.3951C33.8939 32.9679 31.3598 32.9679 29.8691 34.3946C28.5427 35.6641 28.5427 37.5951 29.8691 38.8645L40.0011 48.447L50.1311 38.8647C51.4576 37.5951 51.4576 35.6641 50.1312 34.3946ZM40.0006 57.8015L25.2534 43.6872C21.1806 39.7891 21.1806 33.47 25.2534 29.572C29.3252 25.6749 35.9278 25.6749 40.0006 29.572C44.0725 25.6749 50.675 25.6749 54.7469 29.572C58.8197 33.47 58.8197 39.7891 54.7469 43.6872L40.0006 57.8015Z" fill="white"/>
  </g>
</svg>
